<?xml version="1.0" standalone="no"?><!DOCTYPE svg PUBLIC "-//W3C//DTD SVG 1.1//EN" "http://www.w3.org/Graphics/SVG/1.1/DTD/svg11.dtd"><svg t="1622948449992" class="icon" viewBox="0 0 1024 1024" version="1.1" xmlns="http://www.w3.org/2000/svg" p-id="5347" xmlns:xlink="http://www.w3.org/1999/xlink" width="200" height="200"><defs><style type="text/css"></style></defs><path d="M512 512m-512 0a512 512 0 1 0 1024 0 512 512 0 1 0-1024 0Z" fill="#323232" p-id="5348"></path><path d="M511.998 512m-407.004 0a407.004 407.004 0 1 0 814.008 0 407.004 407.004 0 1 0-814.008 0Z" fill="#494A4A" p-id="5349"></path><path d="M486.212 536.404m-81.686 0a81.686 81.686 0 1 0 163.372 0 81.686 81.686 0 1 0-163.372 0Z" fill="#323232" p-id="5350"></path><path d="M486.212 420.946a114.892 114.892 0 0 1 57.722 15.48l124.602-215.818c-53.632-31.034-115.902-48.802-182.324-48.802s-128.688 17.77-182.322 48.802l124.602 215.818a114.868 114.868 0 0 1 57.72-15.48zM370.756 536.404H121.616c0 134.938 73.31 252.75 182.274 315.796l124.606-215.816c-34.508-19.966-57.74-57.252-57.74-99.98zM850.81 536.404h-249.14c0 42.73-23.23 80.01-57.734 99.976l124.606 215.816c108.958-63.044 182.268-180.856 182.268-315.792z" fill="#323232" p-id="5351"></path><path d="M512.002 511.996H512z" fill="#EDC849" p-id="5352"></path><path d="M511.996 512m-81.686 0a81.686 81.686 0 1 0 163.372 0 81.686 81.686 0 1 0-163.372 0Z" fill="#EDC849" p-id="5353"></path><path d="M511.998 396.542a114.87 114.87 0 0 1 57.722 15.48l124.602-215.82c-53.632-31.03-115.902-48.8-182.324-48.8s-128.688 17.77-182.324 48.794l124.602 215.822a114.934 114.934 0 0 1 57.722-15.476zM396.542 512v-0.004L147.4 512c0 134.938 73.312 252.75 182.274 315.792l124.606-215.816c-34.508-19.964-57.738-57.25-57.738-99.976zM876.596 512l-249.14-0.004V512c0 42.726-23.23 80.008-57.734 99.972l124.604 215.82c108.96-63.046 182.27-180.854 182.27-315.792z" fill="#EDC849" p-id="5354"></path><path d="M511.996 512m-81.686 0a81.686 81.686 0 1 0 163.372 0 81.686 81.686 0 1 0-163.372 0Z" fill="#EDC849" p-id="5355"></path><path d="M511.998 396.542a114.87 114.87 0 0 1 57.722 15.48l124.602-215.82c-53.632-31.03-115.902-48.8-182.324-48.8s-128.688 17.77-182.324 48.794l124.602 215.822a114.934 114.934 0 0 1 57.722-15.476zM396.542 512v-0.004L147.4 512c0 134.938 73.312 252.75 182.274 315.792l124.606-215.816c-34.508-19.964-57.738-57.25-57.738-99.976zM876.596 512l-249.14-0.004V512c0 42.726-23.23 80.008-57.734 99.972l124.604 215.82c108.96-63.046 182.27-180.854 182.27-315.792z" fill="#EDC849" p-id="5356"></path><path d="M512 511.996h-0.002zM512 512l-0.002-0.004 0.002 0.004 0.002-0.004z" fill="#EDC849" p-id="5357"></path><path d="M511.998 511.998h0.004V512h-0.004z" fill="#EDC849" p-id="5358"></path></svg>