<?xml version="1.0" standalone="no"?><!DOCTYPE svg PUBLIC "-//W3C//DTD SVG 1.1//EN" "http://www.w3.org/Graphics/SVG/1.1/DTD/svg11.dtd"><svg t="1623331329717" class="icon" viewBox="0 0 1024 1024" version="1.1" xmlns="http://www.w3.org/2000/svg" p-id="9018" xmlns:xlink="http://www.w3.org/1999/xlink" width="200" height="200"><defs><style type="text/css"></style></defs><path d="M582.8608 36.9152c12.7488 35.2768-66.7136 69.0176-194.4064 87.4496-114.944 15.36-168.8576 36.8128-168.8576 69.0176 0 10.752 9.9328 22.9888 22.6816 27.5968 31.232 13.824 32.6656 12.288 24.1152-21.4528-5.6832-24.5248 0-30.6688 29.7984-30.6688 26.9824 0 36.9152 7.68 36.9152 29.1328 0 36.8128-29.7984 62.8736-80.896 70.5536-21.2992 3.072-41.1648 6.144-42.5984 9.216-2.816 1.536-9.9328 3.072-18.432 4.608-15.616 1.536-17.0496 13.824-5.6832 47.5648 7.1168 18.432 14.1824 19.9168 28.3648 6.144 9.9328-9.216 39.7312-13.824 66.7136-12.288 26.9824 3.072 58.1632-1.536 68.096-10.752 36.9152-30.6688 69.5296-36.8128 69.5296-13.824 0 29.1328-191.5904 167.2192-212.8896 153.3952-11.3664-7.68-11.3664-15.36 0-30.6688 25.5488-33.7408-4.2496-36.8128-56.7808-6.144-43.9808 24.5248-39.7312 36.8128 9.9328 30.6688 9.9328-1.536 18.432 6.144 18.432 18.432s11.3664 32.2048 25.5488 46.0288c24.1152 24.5248 26.9824 24.5248 43.9808-7.68C262.144 471.04 293.376 443.4432 401.2032 365.2096c42.5984-30.6688 88.0128-13.824 88.0128 32.2048 0 30.6688-34.048 65.9456-126.3104 133.4784-35.4816 24.5248-90.8288 75.1616-124.8768 113.5104-140.4928 154.9312-107.8784 331.3664 65.28 362.0352 69.5296 12.288 193.024-27.5968 249.7536-79.7696l39.7312-36.8128 38.2976 30.6688c45.4144 35.2768 72.3968 38.3488 96.512 12.288 11.3664-12.288 4.2496-22.9888-29.7984-41.4208-58.1632-30.6688-65.28-72.0896-18.432-95.1296 29.7984-15.36 42.5984-13.824 73.7792 9.216 26.9824 18.432 41.1648 21.4528 52.5312 9.216s7.1168-22.9888-15.616-41.4208c-56.7808-42.9568-32.6656-110.4384 36.9152-99.6864 32.6656 4.608 73.7792-21.4528 73.7792-44.4928 0-6.144-21.2992-10.752-45.4144-9.216-69.5296 3.072-59.5968-36.8128 19.8656-82.8416 85.1456-50.6368 100.7616-67.5328 46.848-52.1728-130.56 35.2768-376.064 188.672-376.064 236.2368 0 36.8128 26.9824 55.2448 35.4816 24.5248 24.1152-81.3056 22.6816-78.2336 35.4816-55.2448 35.4816 59.8016-9.9328 139.5712-65.28 116.5824-11.3664-4.608-35.4816 1.536-52.5312 13.824-17.0496 12.288-68.096 26.0608-112.128 32.2048-70.9632 9.216-80.896 6.144-95.0784-22.9888-12.7488-24.5248-11.3664-41.4208 4.2496-76.6976 24.1152-47.5648 112.128-130.4064 157.5424-145.7152 26.9824-7.68 75.2128-52.1728 119.1936-110.4384 11.3664-13.824 24.1152-52.1728 29.7984-85.9136 8.4992-49.1008 5.6832-65.9456-17.0496-88.9856-18.432-18.432-24.1152-35.2768-17.0496-49.1008 7.1168-10.752 12.7488-26.0608 12.7488-35.2768 0-7.68 19.8656-26.0608 45.4144-38.3488s53.9136-35.2768 63.8464-49.1008c9.9328-13.824 43.9808-29.1328 75.2128-32.2048 41.1648-4.608 32.6656-6.144-31.232-7.68-69.5296-3.072-92.2624 3.072-106.4448 24.5248-9.9328 15.36-45.4144 50.6368-78.0288 79.7696l-61.0304 50.6368-35.4816-41.4208c-19.8656-22.9888-35.4816-42.9568-35.4816-44.4928 0-3.072 41.1648-24.5248 92.2624-47.5648 86.5792-42.9568 116.3776-72.0896 97.9456-102.7584-12.6976-22.9888-33.9968-15.3088-25.4976 7.68z" fill="#CC0000" p-id="9019"></path><path d="M73.3696 302.2848c-14.1824 15.36-11.3664 78.2336 4.2496 88.9856 21.2992 13.824 70.9632-19.9168 70.9632-49.1008 0-21.4528-2.816-21.4528-28.3648 3.072-34.048 33.7408-55.3472 18.432-31.232-22.9888 15.616-29.1328 4.3008-42.9568-15.616-19.968zM858.1632 398.9504c-105.0112 35.2768-317.9008 214.784-255.4368 214.784 7.1168 0 18.432-9.216 24.1152-19.9168 29.7984-53.7088 154.6752-118.1184 288.1024-151.8592 35.4816-7.68 73.7792-24.5248 85.1456-36.8128 17.0496-18.432 11.3664-21.4528-42.5984-19.9168-35.4304-0.1024-79.4112 6.0416-99.328 13.7216zM20.8896 590.6944c0 12.288 12.7488 36.8128 28.3648 53.7088 38.2976 41.4208 38.2976 98.1504 0 84.3776-34.048-12.288-39.7312 24.5248-7.1168 53.7088 29.7984 26.0608 28.3648 107.3664-1.4336 107.3664s-19.8656 52.1728 12.7488 58.3168c52.5312 10.752 65.28-6.144 51.0976-69.0176-14.1824-72.0896 4.2496-156.4672 49.664-214.784l34.048-42.9568H131.584c-36.9152 0-62.464-9.216-75.2128-27.5968-21.2992-32.256-35.4816-33.792-35.4816-3.1232z" fill="#CC0000" p-id="9020"></path></svg>